<svg id="SvgjsSvg1012" width="288" height="288" xmlns="http://www.w3.org/2000/svg" version="1.1" xmlns:xlink="http://www.w3.org/1999/xlink" xmlns:svgjs="http://svgjs.com/svgjs"><defs id="SvgjsDefs1013"></defs><g id="SvgjsG1014"><svg xmlns="http://www.w3.org/2000/svg" data-name="图层 1" viewBox="0 0 44 44" width="288" height="288"><path fill="none" stroke="#ffffff" stroke-linecap="round" stroke-linejoin="round" stroke-width="3" d="M22.24 19.45 14.76 13a3.37 3.37 0 0 0-5.58 2.55v12.91A3.37 3.37 0 0 0 14.76 31l7.48-6.46a3.37 3.37 0 0 0 0-5.09z" class="colorStroke000 svgStroke"></path><path fill="none" stroke="#ffffff" stroke-linecap="round" stroke-linejoin="round" stroke-width="3" d="M20.59 26v2.48A3.37 3.37 0 0 0 26.17 31l7.48-6.46a3.37 3.37 0 0 0 0-5.11L26.17 13a3.37 3.37 0 0 0-5.58 2.55V18" class="colorStroke000 svgStroke"></path></svg></g></svg>